<?xml version="1.0" standalone="no"?>
<!DOCTYPE svg PUBLIC "-//W3C//DTD SVG 20010904//EN"
 "http://www.w3.org/TR/2001/REC-SVG-20010904/DTD/svg10.dtd">
<svg version="1.0" xmlns="http://www.w3.org/2000/svg"
 width="322.000000pt" height="307.000000pt" viewBox="0 0 322.000000 307.000000"
 preserveAspectRatio="xMidYMid meet">
<metadata>
Created by potrace 1.16, written by Peter Selinger 2001-2019
</metadata>
<g transform="translate(0.000000,307.000000) scale(0.100000,-0.100000)"
fill="#000000" stroke="none">
<path d="M246 2949 c-19 -15 -26 -30 -26 -55 0 -47 14 -70 50 -83 83 -28 147
72 85 134 -30 31 -73 32 -109 4z"/>
<path d="M569 2941 c-35 -36 -37 -70 -6 -106 17 -20 33 -27 61 -28 87 -2 118
116 39 152 -39 18 -63 13 -94 -18z"/>
<path d="M895 2945 c-46 -45 -26 -116 38 -138 31 -11 83 18 95 52 29 83 -72
148 -133 86z"/>
<path d="M1227 2950 c-51 -40 -38 -117 23 -138 83 -29 147 71 85 133 -30 31
-73 32 -108 5z"/>
<path d="M1564 2958 c-24 -11 -44 -48 -44 -78 0 -10 11 -31 24 -46 32 -38 90
-38 123 1 31 36 29 70 -6 106 -30 30 -60 35 -97 17z"/>
<path d="M1875 2945 c-46 -45 -26 -116 38 -138 31 -11 83 18 95 52 29 83 -72
148 -133 86z"/>
<path d="M2207 2950 c-51 -40 -38 -117 23 -138 83 -29 147 71 85 133 -30 31
-73 32 -108 5z"/>
<path d="M2545 2958 c-50 -29 -59 -81 -21 -124 45 -54 128 -29 142 43 5 27 1
37 -24 63 -32 31 -63 37 -97 18z"/>
<path d="M2855 2945 c-63 -63 0 -163 85 -134 36 13 50 35 50 79 0 41 -39 80
-80 80 -19 0 -40 -9 -55 -25z"/>
<path d="M263 2660 c-66 -27 -54 -139 16 -155 33 -7 85 15 95 40 17 46 4 91
-35 110 -32 17 -44 18 -76 5z"/>
<path d="M594 2660 c-28 -11 -54 -48 -54 -77 0 -39 42 -77 85 -77 29 0 43 7
61 28 32 37 30 71 -5 107 -30 30 -50 34 -87 19z"/>
<path d="M915 2659 c-43 -25 -58 -75 -35 -119 23 -42 106 -46 139 -6 20 24 18
84 -5 106 -24 25 -73 34 -99 19z"/>
<path d="M1240 2657 c-14 -7 -31 -25 -39 -41 -12 -25 -11 -33 3 -63 20 -41 58
-58 99 -43 37 12 56 37 57 72 0 40 -9 57 -41 73 -34 18 -47 18 -79 2z"/>
<path d="M1549 2641 c-35 -36 -37 -70 -5 -107 47 -56 146 -20 146 52 0 34 -51
84 -85 84 -16 0 -38 -12 -56 -29z"/>
<path d="M1895 2659 c-32 -18 -45 -40 -45 -76 0 -86 121 -111 154 -31 15 34 6
77 -18 97 -20 17 -69 22 -91 10z"/>
<path d="M2220 2657 c-77 -39 -51 -151 35 -151 89 0 117 110 38 152 -27 15
-42 15 -73 -1z"/>
<path d="M2529 2641 c-35 -36 -37 -70 -5 -107 47 -56 146 -20 146 52 0 34 -51
84 -85 84 -16 0 -38 -12 -56 -29z"/>
<path d="M2875 2659 c-31 -18 -45 -40 -45 -72 0 -62 54 -100 110 -77 36 15 50
37 50 78 0 57 -67 98 -115 71z"/>
<path d="M265 2359 c-33 -19 -45 -41 -45 -80 0 -29 6 -42 27 -59 55 -43 133
-5 133 64 0 55 -70 100 -115 75z"/>
<path d="M594 2360 c-29 -11 -54 -49 -54 -78 0 -32 52 -82 85 -82 34 0 85 50
85 84 0 52 -68 96 -116 76z"/>
<path d="M930 2363 c-57 -21 -79 -94 -40 -133 44 -44 111 -34 137 22 18 35 0
84 -38 103 -30 16 -35 17 -59 8z"/>
<path d="M1239 2355 c-38 -21 -55 -66 -37 -101 27 -57 93 -69 138 -24 61 61
-25 167 -101 125z"/>
<path d="M1574 2360 c-29 -11 -54 -49 -54 -78 0 -32 52 -82 85 -82 34 0 85 50
85 84 0 52 -68 96 -116 76z"/>
<path d="M1910 2363 c-85 -31 -77 -145 11 -159 87 -14 128 110 49 151 -31 16
-36 17 -60 8z"/>
<path d="M2222 2360 c-12 -5 -29 -25 -38 -43 -14 -30 -15 -38 -3 -63 28 -57
94 -69 139 -24 59 59 -19 162 -98 130z"/>
<path d="M2554 2360 c-26 -10 -54 -48 -54 -72 0 -47 42 -88 91 -88 29 0 79 53
79 84 0 52 -68 96 -116 76z"/>
<path d="M2874 2356 c-34 -15 -44 -33 -44 -76 0 -39 29 -70 72 -76 30 -5 41
-2 62 19 42 42 35 107 -15 132 -34 18 -36 18 -75 1z"/>
<path d="M240 2040 c-31 -31 -27 -93 6 -119 56 -44 134 -8 134 62 0 67 -92
105 -140 57z"/>
<path d="M565 2035 c-53 -52 -10 -136 68 -135 39 1 77 45 77 90 0 34 -44 70
-85 70 -25 0 -44 -8 -60 -25z"/>
<path d="M892 2037 c-30 -32 -29 -81 3 -112 61 -62 162 3 134 85 -13 36 -36
50 -82 50 -22 0 -41 -8 -55 -23z"/>
<path d="M1232 2053 c-7 -3 -19 -18 -27 -34 -42 -81 66 -159 130 -94 53 52 18
136 -56 134 -19 0 -40 -3 -47 -6z"/>
<path d="M1545 2035 c-27 -26 -31 -54 -13 -88 43 -81 158 -49 158 44 0 33 -44
69 -85 69 -25 0 -44 -8 -60 -25z"/>
<path d="M1872 2037 c-30 -32 -29 -81 3 -112 61 -62 162 3 134 85 -13 36 -36
50 -82 50 -22 0 -41 -8 -55 -23z"/>
<path d="M2212 2053 c-7 -3 -19 -18 -27 -34 -42 -81 66 -159 130 -94 51 50 17
136 -53 134 -20 0 -43 -3 -50 -6z"/>
<path d="M2521 2034 c-29 -37 -27 -79 5 -109 37 -35 78 -33 116 5 25 26 29 36
24 63 -8 43 -39 67 -86 67 -30 0 -43 -6 -59 -26z"/>
<path d="M2852 2037 c-69 -74 32 -179 112 -116 34 27 37 88 4 119 -31 28 -88
27 -116 -3z"/>
<path d="M242 1737 c-48 -51 -13 -137 55 -137 48 0 83 34 83 80 0 30 -6 43
-26 59 -36 28 -85 27 -112 -2z"/>
<path d="M573 1745 c-42 -30 -34 -121 12 -139 89 -34 165 65 100 129 -28 29
-79 33 -112 10z"/>
<path d="M895 1735 c-16 -15 -25 -36 -25 -55 0 -71 91 -107 140 -55 72 77 -41
185 -115 110z"/>
<path d="M1220 1735 c-72 -77 41 -185 115 -110 16 15 25 36 25 55 0 71 -91
107 -140 55z"/>
<path d="M1545 1735 c-65 -64 11 -163 100 -129 25 10 47 62 40 95 -13 60 -95
80 -140 34z"/>
<path d="M1876 1739 c-20 -16 -26 -29 -26 -59 0 -73 90 -108 140 -55 71 75
-32 178 -114 114z"/>
<path d="M2209 1747 c-43 -33 -46 -81 -6 -124 45 -50 137 -12 137 57 0 61 -83
104 -131 67z"/>
<path d="M2525 1735 c-67 -66 20 -171 104 -125 31 16 46 65 31 100 -23 56 -92
69 -135 25z"/>
<path d="M2852 1737 c-32 -34 -30 -89 4 -116 58 -46 134 -11 134 60 0 71 -90
107 -138 56z"/>
<path d="M246 1439 c-58 -45 -21 -139 55 -139 72 0 106 84 54 135 -30 31 -73
32 -109 4z"/>
<path d="M579 1447 c-21 -16 -39 -51 -39 -77 0 -34 44 -70 85 -70 41 0 85 36
85 70 0 29 -26 76 -45 84 -26 10 -69 6 -86 -7z"/>
<path d="M895 1435 c-51 -50 -17 -135 53 -135 43 1 67 16 81 53 30 78 -75 142
-134 82z"/>
<path d="M1232 1444 c-32 -22 -43 -57 -31 -94 29 -83 159 -60 159 29 0 65 -75
103 -128 65z"/>
<path d="M1545 1434 c-51 -54 -14 -134 60 -134 41 0 85 36 85 70 0 79 -93 120
-145 64z"/>
<path d="M1875 1435 c-53 -52 -18 -135 56 -135 40 1 65 17 78 53 30 78 -75
142 -134 82z"/>
<path d="M2207 1440 c-33 -26 -41 -63 -23 -99 17 -33 34 -41 81 -41 24 0 39 7
54 26 62 79 -34 176 -112 114z"/>
<path d="M2525 1435 c-16 -15 -25 -36 -25 -55 0 -92 145 -110 165 -21 18 81
-82 135 -140 76z"/>
<path d="M2856 1439 c-58 -45 -21 -139 55 -139 47 0 79 34 79 82 0 43 -36 78
-80 78 -15 0 -39 -9 -54 -21z"/>
<path d="M246 1139 c-19 -15 -26 -30 -26 -55 0 -47 14 -70 50 -83 83 -28 147
72 85 134 -30 31 -73 32 -109 4z"/>
<path d="M569 1131 c-35 -36 -37 -70 -6 -106 17 -21 32 -27 62 -27 30 0 45 6
62 27 36 41 24 102 -24 124 -39 18 -63 13 -94 -18z"/>
<path d="M895 1135 c-46 -45 -26 -116 38 -138 31 -11 83 18 95 52 29 83 -72
148 -133 86z"/>
<path d="M1227 1140 c-33 -26 -41 -63 -22 -100 38 -73 155 -45 155 37 0 70
-78 106 -133 63z"/>
<path d="M1564 1148 c-24 -11 -44 -48 -44 -78 0 -10 10 -31 23 -45 47 -55 147
-20 147 51 0 33 -51 84 -82 83 -13 0 -33 -5 -44 -11z"/>
<path d="M1875 1135 c-46 -45 -26 -116 38 -138 31 -11 83 18 95 52 29 83 -72
148 -133 86z"/>
<path d="M2207 1140 c-68 -54 -21 -153 68 -141 11 1 30 13 43 27 66 74 -32
176 -111 114z"/>
<path d="M2545 1148 c-76 -44 -48 -150 39 -150 45 0 73 23 82 69 5 27 1 37
-24 63 -32 31 -63 37 -97 18z"/>
<path d="M2855 1135 c-62 -62 2 -162 85 -134 82 29 57 159 -30 159 -19 0 -40
-9 -55 -25z"/>
<path d="M263 850 c-39 -16 -56 -77 -33 -119 16 -31 65 -46 100 -31 35 14 50
37 50 74 0 38 -10 55 -41 71 -32 17 -44 18 -76 5z"/>
<path d="M569 831 c-35 -36 -37 -70 -5 -107 47 -56 146 -20 146 52 0 34 -51
84 -85 84 -16 0 -38 -12 -56 -29z"/>
<path d="M915 849 c-31 -18 -45 -40 -45 -73 1 -89 121 -114 155 -32 16 37 9
72 -17 94 -22 18 -70 24 -93 11z"/>
<path d="M1240 847 c-14 -7 -31 -25 -39 -41 -12 -25 -11 -33 3 -63 20 -41 58
-58 99 -43 37 12 56 37 57 72 0 40 -9 57 -41 73 -34 18 -47 18 -79 2z"/>
<path d="M1549 831 c-35 -36 -37 -70 -5 -107 47 -56 146 -20 146 52 0 34 -51
84 -85 84 -16 0 -38 -12 -56 -29z"/>
<path d="M1895 848 c-69 -37 -57 -135 19 -154 33 -8 82 20 94 54 24 69 -50
135 -113 100z"/>
<path d="M2220 847 c-77 -39 -51 -151 35 -151 89 0 117 110 38 152 -27 15 -42
15 -73 -1z"/>
<path d="M2529 831 c-35 -36 -37 -70 -5 -107 47 -56 146 -20 146 52 0 34 -51
84 -85 84 -16 0 -38 -12 -56 -29z"/>
<path d="M2875 849 c-31 -18 -45 -40 -45 -72 0 -62 54 -100 110 -77 36 15 50
37 50 78 0 57 -67 98 -115 71z"/>
<path d="M265 548 c-52 -28 -62 -92 -19 -135 21 -21 32 -24 62 -19 44 7 72 37
72 78 0 42 -15 64 -51 77 -38 13 -39 13 -64 -1z"/>
<path d="M594 550 c-29 -11 -54 -49 -54 -78 0 -32 52 -82 85 -82 34 0 85 50
85 84 0 52 -68 96 -116 76z"/>
<path d="M930 553 c-57 -21 -79 -94 -40 -133 44 -44 111 -34 137 22 18 35 0
84 -38 103 -30 16 -35 17 -59 8z"/>
<path d="M1239 545 c-38 -21 -55 -66 -37 -101 27 -57 93 -69 138 -24 61 61
-25 167 -101 125z"/>
<path d="M1574 550 c-29 -11 -54 -49 -54 -78 0 -32 52 -82 85 -82 34 0 85 50
85 84 0 52 -68 96 -116 76z"/>
<path d="M1901 549 c-50 -20 -67 -82 -36 -126 19 -27 75 -39 105 -23 55 29 55
117 -1 145 -32 17 -35 17 -68 4z"/>
<path d="M2219 545 c-38 -21 -55 -66 -37 -101 27 -57 93 -69 138 -24 61 61
-25 167 -101 125z"/>
<path d="M2554 550 c-26 -10 -54 -48 -54 -72 0 -47 42 -88 91 -88 29 0 79 53
79 84 0 52 -68 96 -116 76z"/>
<path d="M2874 546 c-76 -34 -48 -156 36 -156 82 0 112 118 39 155 -34 18 -36
18 -75 1z"/>
<path d="M240 230 c-31 -31 -27 -93 6 -119 56 -44 134 -8 134 62 0 67 -92 105
-140 57z"/>
<path d="M565 225 c-53 -52 -10 -136 68 -135 26 1 50 17 65 47 17 32 15 57 -9
87 -28 36 -89 37 -124 1z"/>
<path d="M892 227 c-30 -32 -29 -81 3 -112 61 -62 162 3 134 85 -13 36 -36 50
-82 50 -22 0 -41 -8 -55 -23z"/>
<path d="M1227 238 c-43 -33 -40 -100 5 -132 79 -56 176 56 105 122 -26 25
-83 30 -110 10z"/>
<path d="M1545 225 c-27 -26 -31 -54 -13 -88 43 -81 158 -49 158 44 0 33 -44
69 -85 69 -25 0 -44 -8 -60 -25z"/>
<path d="M1872 227 c-30 -32 -29 -81 3 -112 61 -62 162 3 134 85 -13 36 -36
50 -82 50 -22 0 -41 -8 -55 -23z"/>
<path d="M2212 243 c-7 -3 -19 -18 -27 -34 -42 -81 66 -159 130 -94 51 50 17
136 -53 134 -20 0 -43 -3 -50 -6z"/>
<path d="M2521 224 c-29 -37 -27 -79 5 -109 37 -35 78 -33 116 5 25 26 29 36
24 63 -8 43 -39 67 -86 67 -30 0 -43 -6 -59 -26z"/>
<path d="M2852 227 c-69 -74 32 -179 112 -116 33 26 37 88 6 119 -29 29 -90
27 -118 -3z"/>
</g>
</svg>
